{"title":"S.Darko-720p MP4 AAC x264 BRRip 2009-CC","uid":8020964,"size":3046698832,"categoryP":"video","categoryS":"hd___movies","magnet":"?xt=urn:btih:d05f45f8bad1b300a9b3be289e40d2408848b046&amp;dn=S.Darko-720p+MP4+AAC+x264+BRRip+2009-CC&amp;tr=udp%3A%2F%2Ftracker.openbittorrent.com%3A80&amp;tr=udp%3A%2F%2Fopen.demonii.com%3A1337&amp;tr=udp%3A%2F%2Ftracker.coppersurfer.tk%3A6969&amp;tr=udp%3A%2F%2Fexodus.desync.com%3A6969","seeders":4,"leechers":4,"uploader":"Caveman44","files":-1,"time":1358198913,"description":" &lt;a href=&quot;http://www.imdb.com/title/tt1231277/&quot; rel=&quot;nofollow&quot; target=&quot;_NEW&quot;&gt;http://www.imdb.com/title/tt1231277/&lt;/a&gt;\n\nSource: S.Darko.720p.BluRay.x264.-.BestHD Thanks!\n\nSubs: Danish, Dutch, English, Hebrew, Romanian, Servian, Swedish, Vietnamese.\n\nSample and Screens included.\n\nGeneral\nComplete name                            : S.Darko-720p MP4 AAC x264 BRRip 2009-CC.mp4\nFormat                                   : MPEG-4\nFormat profile                           : Base Media\nCodec ID                                 : isom\nFile size                                : 2.81 GiB\nDuration                                 : 1h 43mn\nOverall bit rate mode                    : Variable\nOverall bit rate                         : 3 898 Kbps\nEncoded date                             : UTC 2012-12-28 08:41:49\n\nVideo\nID                                       : 1\nFormat                                   : AVC\nFormat/Info                              : Advanced Video Codec\nFormat profile                           : &lt;a class=&quot;__cf_email__&quot; href=&quot;/cdn-cgi/l/email-protection&quot; data-cfemail=&quot;eca4858b84aca0d8c2dd&quot;&gt;[email&amp;#160;protected]&lt;/a&gt;&lt;script cf-hash='f9e31' type=&quot;text/javascript&quot;&gt;\n/* &lt;![CDATA[ */!function(){try{var t=&quot;currentScript&quot;in document?document.currentScript:function(){for(var t=document.getElementsByTagName(&quot;script&quot;),e=t.length;e--;)if(t[e].getAttribute(&quot;cf-hash&quot;))return t[e]}();if(t&amp;&amp;t.previousSibling){var e,r,n,i,c=t.previousSibling,a=c.getAttribute(&quot;data-cfemail&quot;);if(a){for(e=&quot;&quot;,r=parseInt(a.substr(0,2),16),n=2;a.length-n;n+=2)i=parseInt(a.substr(n,2),16)^r,e+=String.fromCharCode(i);e=document.createTextNode(e),c.parentNode.replaceChild(e,c)}}}catch(u){}}();/* ]]&gt; */&lt;/script&gt;\nFormat settings, CABAC                   : Yes\nFormat settings, ReFrames                : 5 frames\nCodec ID                                 : avc1\nCodec ID/Info                            : Advanced Video Coding\nDuration                                 : 1h 43mn\nBit rate                                 : 3 651 Kbps\nMaximum bit rate                         : 28.6 Mbps\nWidth                                    : 1 280 pixels\nHeight                                   : 720 pixels\nDisplay aspect ratio                     : 16:9\nFrame rate mode                          : Variable\nFrame rate                               : 23.976 fps\nMinimum frame rate                       : 13.605 fps\nMaximum frame rate                       : 24.390 fps\nColor space                              : YUV\nChroma subsampling                       : 4:2:0\nBit depth                                : 8 bits\nScan type                                : Progressive\nBits/(Pixel*Frame)                       : 0.165\nStream size                              : 2.53 GiB (90%)\nWriting library                          : x264 core 112\n\nAudio\nID                                       : 2\nFormat                                   : AAC\nFormat/Info                              : Advanced Audio Codec\nFormat profile                           : LC\nCodec ID                                 : 40\nDuration                                 : 1h 43mn\nBit rate mode                            : Variable\nBit rate                                 : 384 Kbps\nMaximum bit rate                         : 708 Kbps\nChannel(s)                               : 6 channels\nChannel positions                        : Front: L C R, Side: L R, LFE\nSampling rate                            : 48.0 KHz\nCompression mode                         : Lossy\nDelay relative to video                  : 83ms\nStream size                              : 283 MiB (10%)\nLanguage                                 : English\n\nEnjoy...\n\nRequested by aartje80\n\nComing soon: Apocalypse Hitler, Twilight Samurai, The Big Heat, Broken Arrow, Superman Returns and more..","torrent":{"xt":"urn:btih:d05f45f8bad1b300a9b3be289e40d2408848b046","amp;dn":"S.Darko-720p+MP4+AAC+x264+BRRip+2009-CC","amp;tr":["udp%3A%2F%2Ftracker.openbittorrent.com%3A80","udp%3A%2F%2Fopen.demonii.com%3A1337","udp%3A%2F%2Ftracker.coppersurfer.tk%3A6969","udp%3A%2F%2Fexodus.desync.com%3A6969"],"infoHash":"d05f45f8bad1b300a9b3be289e40d2408848b046","infoHashBuffer":{"type":"Buffer","data":[208,95,69,248,186,209,179,0,169,179,190,40,158,64,210,64,136,72,176,70]},"announce":[],"urlList":[]}}